<svg xmlns="http://www.w3.org/2000/svg" width="71" height="63" viewBox="0 0 71 63"><g><g><path fill="#fdd5c9" d="M34.302.334V5.28c-7.916 2.638-14.183 6.596-18.47 12.203-4.288 5.607-6.597 11.544-6.597 17.481 0 1.32.33 2.639.99 3.628.66.99 1.319 1.32 1.649 1.32.99 0 2.638-.66 5.607-2.31 1.319-.66 2.968-.989 4.287-.989 3.958 0 6.927.99 9.235 3.298 2.31 2.31 3.299 5.278 3.299 9.235 0 3.628-1.32 6.927-4.288 9.895C27.046 61.681 23.418 63 19.46 63c-4.948 0-9.565-2.309-13.523-6.596C1.979 52.116 0 46.179 0 38.594c0-7.917 2.639-15.503 8.246-22.1C13.523 9.57 22.428 4.292 34.302.335z"/></g><g><path fill="#fdd5c9" d="M70.455.334V5.28c-7.915 2.638-14.182 6.596-18.47 12.203-4.287 5.607-6.596 11.544-6.596 17.481 0 1.32.33 2.639.99 3.628.659.99 1.319 1.32 1.648 1.32.99 0 2.639-.66 5.607-2.31 1.32-.66 2.969-.989 4.288-.989 3.958 0 6.926.99 9.235 3.298 2.309 2.31 3.298 5.278 3.298 9.235 0 3.628-1.319 6.927-4.287 9.895C63.199 61.681 59.57 63 55.613 63c-4.947 0-9.565-2.309-13.522-6.596-3.958-4.288-5.937-10.225-5.937-17.81 0-7.917 2.638-15.503 8.245-22.1C49.677 9.57 58.582 4.292 70.455.335z"/></g></g></svg>